<?xml version="1.0" encoding="UTF-8"?>
<svg version="1.1" xmlns="http://www.w3.org/2000/svg" width="4501" height="4501">
<path d="M0 0 C2.50486467 -0.00124362 5.00972915 -0.00292486 7.51459327 -0.00500236 C12.97577345 -0.00852349 18.43694035 -0.00894596 23.89812093 -0.00664073 C32.09745852 -0.00320045 40.2967876 -0.00557339 48.49612481 -0.00903876 C62.53509269 -0.01480246 76.57405736 -0.01581299 90.61302617 -0.01426902 C104.91836857 -0.01271482 119.22370842 -0.01334931 133.52905056 -0.01661023 C134.88942942 -0.01691818 134.88942942 -0.01691818 136.27729069 -0.01723235 C140.90789374 -0.01828987 145.53849678 -0.01938136 150.16909981 -0.0204838 C184.00001298 -0.02845953 217.83092522 -0.03145413 251.66183925 -0.03192973 C285.95872621 -0.03242416 320.255612 -0.03506848 354.55249858 -0.04033732 C356.7385359 -0.04067086 358.92457322 -0.04100433 361.11061054 -0.04133773 C369.92463616 -0.04268583 378.73866177 -0.04404913 387.55268738 -0.04542983 C484.51795326 -0.06059775 581.48321884 -0.0673729 678.44848571 -0.0718518 C679.67505344 -0.07190849 680.90162117 -0.07196518 682.16535762 -0.07202359 C688.36961064 -0.07231011 694.57386367 -0.07259514 700.7781167 -0.0728777 C752.75805812 -0.07525281 804.73799941 -0.07896248 856.71794073 -0.0829148 C881.61081738 -0.08480739 906.50369403 -0.08663589 931.39657068 -0.088449 C932.63460565 -0.08853919 933.87264063 -0.08862938 935.14819181 -0.0887223 C994.73381405 -0.09305858 1054.31943632 -0.0969869 1113.90505862 -0.10044932 C1115.17613404 -0.1005232 1116.44720945 -0.10059707 1117.7568023 -0.10067318 C1198.76378086 -0.10536827 1279.77075938 -0.10819121 1360.77773806 -0.1098361 C1367.4194398 -0.10997168 1374.06114154 -0.11011071 1380.70284328 -0.11024964 C1391.35110738 -0.11047212 1401.99937149 -0.11069349 1412.64763559 -0.11091352 C1413.96713726 -0.11094079 1415.28663893 -0.11096806 1416.6461255 -0.11099616 C1419.31294442 -0.11105127 1421.97976334 -0.11110639 1424.64658227 -0.11116149 C1443.35356337 -0.11154811 1462.06054447 -0.11193605 1480.76752556 -0.11233062 C1487.46127111 -0.11247173 1494.15501665 -0.11261181 1500.8487622 -0.11274952 C1627.26499059 -0.1153536 1753.68121775 -0.12068273 1880.09744525 -0.13663173 C1881.42815084 -0.13679952 1882.75885642 -0.13696731 1884.12988642 -0.13714019 C1925.70682094 -0.14239087 1967.28375541 -0.14796523 2008.86068988 -0.1535995 C2051.52167644 -0.15938051 2094.18266302 -0.16511108 2136.84364963 -0.17055583 C2138.15721737 -0.17072364 2139.47078511 -0.17089144 2140.82415794 -0.17106434 C2223.09676582 -0.18155819 2305.36937335 -0.18841932 2387.64198184 -0.19142222 C2388.91277204 -0.19146904 2390.18356224 -0.19151585 2391.49286124 -0.19156408 C2447.30449047 -0.19361478 2503.11611968 -0.19485883 2558.92774895 -0.19521013 C2581.38138848 -0.1953534 2603.83502802 -0.19559206 2626.28866755 -0.19587419 C2630.01157774 -0.19591972 2633.73448793 -0.19596137 2637.45739811 -0.1960023 C2694.39476503 -0.19664831 2751.33213054 -0.19960422 2808.26949668 -0.20946288 C2809.49711185 -0.20967525 2810.72472701 -0.20988762 2811.98954264 -0.21010643 C2831.73691074 -0.21353516 2851.48427881 -0.21714814 2871.23164688 -0.22078283 C2927.30174275 -0.23109803 2983.37183689 -0.23987699 3039.44193387 -0.23793817 C3041.14912595 -0.23788006 3041.14912595 -0.23788006 3042.89080676 -0.23782078 C3067.72343437 -0.23694413 3092.55606186 -0.23523191 3117.38868936 -0.23270115 C3127.29325402 -0.23170442 3137.1978187 -0.23081776 3147.10238338 -0.22996593 C3148.18279231 -0.22987004 3149.26320124 -0.22977415 3150.37634984 -0.22967536 C3184.61959778 -0.22668848 3218.86283569 -0.23291197 3253.10608157 -0.24448479 C3286.83776377 -0.25584621 3320.56943256 -0.25806997 3354.30111532 -0.24707929 C3358.92745324 -0.24557326 3363.55379118 -0.24417193 3368.18012914 -0.24283347 C3369.0857797 -0.24256742 3369.99143026 -0.24230137 3370.92452477 -0.24202727 C3385.16812638 -0.23811535 3399.41170495 -0.24417589 3413.65530257 -0.25457332 C3427.61298286 -0.26455615 3441.57062869 -0.263783 3455.5283077 -0.25172237 C3462.94991144 -0.24559715 3470.37143942 -0.2440155 3477.79303745 -0.25640723 C3534.8675685 -0.34693265 3534.8675685 -0.34693265 3561.6414516 3.1276505 C3562.61481435 3.25200541 3563.5881771 3.37636033 3564.5910357 3.50448357 C3569.85798318 4.18915639 3575.09454064 4.97845619 3580.3289516 5.8776505 C3581.08518817 6.00426061 3581.84142474 6.13087071 3582.62057757 6.26131749 C3664.56605156 20.02266783 3743.61089687 54.1793772 3808.6414516 106.1276505 C3809.28066546 106.63683019 3809.91987933 107.14600987 3810.57846332 107.67061925 C3817.9672332 113.57182318 3825.27878451 119.5210133 3832.2352016 125.932338 C3833.52940887 127.11309204 3834.83076177 128.28715709 3836.17050433 129.41598058 C3843.03787221 135.24078998 3849.32525855 141.66103454 3855.67782855 148.03365636 C3857.69909427 150.0602803 3859.72564733 152.08150597 3861.75277972 154.10225987 C3867.92569173 160.2717031 3874.04457147 166.42211673 3879.6414516 173.1276505 C3880.51772281 174.13792278 3881.39527342 175.14708716 3882.2742641 176.15499425 C3889.7497007 184.88414828 3896.77155252 193.91596977 3903.6414516 203.1276505 C3904.45815326 204.22085607 3904.45815326 204.22085607 3905.29135394 205.33614659 C3913.65719054 216.58589714 3921.36594523 228.14593608 3928.6414516 240.1276505 C3929.17850726 241.00566319 3929.71556293 241.88367589 3930.268893 242.78829503 C3969.69010605 307.56239793 3992.90935039 379.88098563 4001.6414516 463.1276505 C4001.72458143 464.06773356 4001.80771126 465.00781661 4001.89336018 465.97638703 C4002.84563149 478.2041307 4002.78105885 490.416135 4002.7691021 502.6745863 C4002.77034614 505.17546901 4002.77202765 507.67635154 4002.77410446 510.1772337 C4002.77762167 515.62344079 4002.77805052 521.06963454 4002.77574283 526.51584202 C4002.77229891 534.69267217 4002.7746778 542.86949382 4002.77814085 551.04632359 C4002.7839012 565.04756331 4002.78491583 579.0487998 4002.78337112 593.05004045 C4002.78181639 607.31498207 4002.78245257 621.57992114 4002.78571233 635.84486249 C4002.78602028 637.20188014 4002.78602028 637.20188014 4002.78633444 638.58631229 C4002.78739198 643.20555093 4002.78848346 647.82478956 4002.78958589 652.44402819 C4002.79755966 686.18373678 4002.80055613 719.92344443 4002.80103183 753.66315389 C4002.80152632 787.86567415 4002.80417137 822.06819322 4002.80943942 856.27071309 C4002.80977296 858.45106047 4002.81010643 860.63140785 4002.81043983 862.81175522 C4002.81178794 871.60289728 4002.81315124 880.39403934 4002.81453193 889.18518139 C4002.82969817 985.88855276 4002.83647472 1082.59192383 4002.8409539 1179.29529621 C4002.84101059 1180.51847797 4002.84106727 1181.74165973 4002.84112568 1183.0019076 C4002.84141221 1189.18905091 4002.84169724 1195.37619422 4002.8419798 1201.56333753 C4002.84435508 1253.40402436 4002.84806479 1305.24471107 4002.8520169 1357.0853978 C4002.85390949 1381.91303497 4002.85573799 1406.74067214 4002.8575511 1431.56830931 C4002.85764129 1432.80310593 4002.85773148 1434.03790255 4002.8578244 1435.31011725 C4002.86216064 1494.73944924 4002.86608896 1554.16878125 4002.86955142 1613.5981133 C4002.86962529 1614.86584504 4002.86969916 1616.13357678 4002.86977528 1617.43972463 C4002.87447024 1698.23145144 4002.87729326 1779.02317821 4002.8789382 1859.81490513 C4002.87907378 1866.43877175 4002.87921281 1873.06263837 4002.87935174 1879.68650499 C4002.87957421 1890.30615043 4002.87979558 1900.92579588 4002.88001562 1911.54544132 C4002.88004289 1912.86139453 4002.88007016 1914.17734775 4002.88009826 1915.53317834 C4002.88015337 1918.19282415 4002.88020848 1920.85246995 4002.88026359 1923.51211576 C4002.8806502 1942.16873472 4002.88103815 1960.82535368 4002.88143272 1979.48197264 C4002.88157383 1986.15769074 4002.8817139 1992.83340885 4002.88185162 1999.50912696 C4002.88445569 2125.58440212 4002.88978481 2251.65967604 4002.90573382 2377.7349503 C4002.90590162 2379.06206627 4002.90606941 2380.38918224 4002.90624229 2381.75651384 C4002.91149298 2423.22137193 4002.91706733 2464.68622997 4002.9227016 2506.151088 C4002.92848263 2548.69724963 4002.9342132 2591.24341127 4002.93965793 2633.78957295 C4002.93982573 2635.09961214 4002.93999354 2636.40965132 4002.94016643 2637.75938867 C4002.95066059 2719.81336734 4002.95752149 2801.86734568 4002.96052432 2883.92132497 C4002.96057113 2885.18877218 4002.96061794 2886.45621939 4002.96066617 2887.76207409 C4002.9627169 2943.42733434 4002.96396093 2999.09259458 4002.96431223 3054.75785486 C4002.9644555 3077.15270201 4002.96469416 3099.54754915 4002.96497629 3121.94239629 C4002.96502182 3125.65554488 4002.96506347 3129.36869347 4002.9651044 3133.08184206 C4002.96575037 3189.86660632 4002.96870554 3246.65136918 4002.97856498 3303.43613267 C4002.97888353 3305.27247445 4002.97888353 3305.27247445 4002.97920853 3307.14591405 C4002.98263723 3326.83863213 4002.98625022 3346.53135017 4002.98988493 3366.2240682 C4003.00020067 3422.14159504 4003.00897891 3478.05912014 4003.00704026 3533.97664809 C4003.00698215 3535.67934882 4003.00698215 3535.67934882 4003.00692287 3537.41644755 C4003.00604621 3562.18429295 4003.00433395 3586.95213822 4003.00180325 3611.7199835 C4003.00080652 3621.59884455 4002.99991986 3631.47770561 4002.99906802 3641.35656667 C4002.99897213 3642.43416858 4002.99887625 3643.5117705 4002.99877745 3644.62202702 C4002.99579107 3678.77071264 4003.00201249 3712.91938822 4003.01358689 3747.0680718 C4003.02495076 3780.70929942 4003.02716939 3814.35051361 4003.01618138 3847.9917418 C4003.01467538 3852.60673285 4003.01327405 3857.22172392 4003.01193556 3861.83671501 C4003.01166952 3862.74013637 4003.01140347 3863.64355774 4003.01112936 3864.5743555 C4003.007219 3878.7770591 4003.01327481 3892.97973957 4003.02367542 3907.18243916 C4003.0336637 3921.10353294 4003.0328784 3935.02459219 4003.02082447 3948.94568469 C4003.01470368 3956.34638842 4003.01310795 3963.74701619 4003.02550933 3971.14771417 C4003.15630216 4053.48835524 3991.94225527 4130.38758434 3957.6414516 4206.1276505 C3956.95115863 4207.65494786 3956.95115863 4207.65494786 3956.24692035 4209.21309972 C3938.03702565 4249.15548042 3913.8466788 4286.88407612 3885.1883266 4320.1432755 C3882.77730023 4322.96846591 3880.45542682 4325.84787309 3878.1414516 4328.7526505 C3874.133669 4333.68696348 3869.74612215 4338.12161512 3865.2117641 4342.56124425 C3862.40746554 4345.36128095 3859.82452221 4348.28943751 3857.24692035 4351.29561925 C3852.86844653 4356.29197988 3848.02498508 4360.7256004 3842.99692035 4365.05343175 C3840.62532108 4367.14185498 3838.31282758 4369.28255133 3836.00375628 4371.43941808 C3829.75107393 4377.27555877 3823.32723879 4382.78799495 3816.6414516 4388.1276505 C3815.53498507 4389.0365935 3814.42956883 4389.9468161 3813.32504535 4390.85811925 C3791.91158295 4408.41674645 3768.33444825 4424.31409118 3743.87461137 4437.31923019 C3741.46024422 4438.6696709 3739.19896472 4440.06306619 3736.89382847 4441.5779633 C3722.91324928 4450.33428669 3710.20401787 4450.54010531 3694.05691558 4450.38689548 C3691.27284832 4450.39189286 3688.48893258 4450.41197864 3685.70493256 4450.43127222 C3679.649077 4450.46529814 3673.59412057 4450.46254207 3667.53824363 4450.43528288 C3658.44635187 4450.39456923 3649.35518647 4450.41227476 3640.26328115 4450.4407682 C3624.69463255 4450.48787084 3609.1263053 4450.48757889 3593.55762161 4450.46166403 C3577.69812931 4450.4354635 3561.83885292 4450.43129792 3545.97935205 4450.45344865 C3544.47011062 4450.45553577 3544.47011062 4450.45553577 3542.93037946 4450.45766506 C3537.79289555 4450.46486535 3532.6554122 4450.47241079 3527.51792895 4450.48007078 C3490.00246694 4450.53523757 3452.48712136 4450.54090923 3414.97163081 4450.52157903 C3376.94416609 4450.50212771 3338.91679429 4450.50437124 3300.88933444 4450.53312802 C3299.69022288 4450.53402428 3298.49111131 4450.53492053 3297.25566303 4450.53584395 C3286.26661563 4450.5440582 3275.27756841 4450.55248616 3264.28852138 4450.56117211 C3236.73140144 4450.58292044 3209.17427969 4450.60109719 3181.61715567 4450.61683381 C3179.72292978 4450.61791719 3179.72292978 4450.61791719 3177.7904367 4450.61902246 C3115.52751329 4450.65428238 3053.26459838 4450.65107102 2991.00166774 4450.64342999 C2988.97716633 4450.64318195 2988.97716633 4450.64318195 2986.9117659 4450.6429289 C2981.44762691 4450.64225733 2975.98348793 4450.64158158 2970.51934894 4450.640902 C2955.42568452 4450.63902619 2940.33202008 4450.63723783 2925.23835564 4450.63556337 C2923.87563145 4450.63540979 2922.51290727 4450.63525621 2921.10888842 4450.63509798 C2859.35089751 4450.62822893 2797.59291641 4450.64087711 2735.83492812 4450.65819371 C2727.57410867 4450.66050988 2719.31328921 4450.66276919 2711.05246974 4450.66501432 C2709.68691849 4450.66538572 2708.32136723 4450.66575712 2706.91443564 4450.66613977 C2704.1538001 4450.66689053 2701.39316456 4450.66764112 2698.63252903 4450.66839156 C2691.72006701 4450.67027192 2684.807605 4450.67215925 2677.89514298 4450.67404699 C2676.52460363 4450.67442101 2675.15406428 4450.67479502 2673.74199344 4450.67518036 C2666.8113941 4450.67707274 2659.88079476 4450.67897235 2652.95019542 4450.68088509 C2588.26885099 4450.69872615 2523.58750611 4450.71304772 2458.90616012 4450.72384858 C2457.49682889 4450.72408478 2456.08749767 4450.72432097 2454.63545944 4450.72456432 C2364.82411304 4450.73953906 2275.01277415 4450.73891204 2185.20142747 4450.72674471 C2180.78494354 4450.72614676 2176.3684596 4450.72555485 2171.95197566 4450.72496426 C2139.44226535 4450.72060709 2106.93255509 4450.7159541 2074.42284483 4450.71121109 C2071.45797149 4450.71077917 2068.49309815 4450.7103473 2065.52822481 4450.7099155 C2062.56213718 4450.70948331 2059.59604955 4450.7090511 2056.62996192 4450.70861885 C2055.16131831 4450.7084049 2053.6926747 4450.70819095 2052.17952674 4450.70797052 C2044.75878599 4450.70688857 2037.33804524 4450.70580136 2029.91730449 4450.70470436 C1889.75396754 4450.68401076 1749.59066818 4450.67862497 1609.42734027 4450.7405045 C1607.95165062 4450.74115592 1606.47596096 4450.74180733 1604.95555344 4450.74247848 C1560.33181955 4450.76223793 1515.70808668 4450.78403576 1471.084354 4450.80633427 C1422.29029457 4450.8307145 1373.49623507 4450.85488401 1324.7021749 4450.87774301 C1323.24547374 4450.87842686 1321.78877258 4450.87911071 1320.28792896 4450.87981529 C1229.06124616 4450.92258683 1137.83457412 4450.94710698 1046.60788131 4450.95128083 C1044.49449281 4450.95138037 1044.49449281 4450.95138037 1042.3384096 4450.95148192 C980.46252019 4450.95435852 918.58663147 4450.95293471 856.71074231 4450.94688834 C833.195693 4450.94459228 809.68064367 4450.94263109 786.16559432 4450.94083455 C780.66080841 4450.94041323 775.15602251 4450.93996688 769.65123661 4450.93950045 C706.5186376 4450.93422241 643.38606624 4450.93962392 580.2534771 4450.97787523 C578.89196773 4450.97869845 577.53045836 4450.97952167 576.12769114 4450.98036983 C554.22613769 4450.99366129 532.32458476 4451.00775678 510.42303184 4451.02188995 C448.24923078 4451.06196103 386.07547025 4451.09370736 323.90165579 4451.07154572 C322.64007914 4451.07109872 321.37850249 4451.07065171 320.07869625 4451.07019116 C292.55505775 4451.06027354 265.03142311 4451.04609653 237.50778899 4451.02773856 C226.53058569 4451.0204775 215.55338206 4451.01375635 204.57617831 4451.00719953 C203.37875413 4451.00646919 202.18132995 4451.00573885 200.94762018 4451.00498638 C162.97274139 4450.98207808 124.99807819 4451.00517022 87.02323011 4451.05487247 C49.62713031 4451.10361923 12.23134274 4451.10675292 -25.16474549 4451.04359597 C-30.28925408 4451.03494734 -35.41376336 4451.02682073 -40.53827328 4451.01900672 C-41.54147703 4451.0174567 -42.54468078 4451.01590668 -43.57828464 4451.01430968 C-59.38025969 4450.99125564 -75.18172862 4451.01813237 -90.98362975 4451.06651652 C-106.45403242 4451.1128582 -121.92364599 4451.10575024 -137.39399454 4451.04186309 C-146.41075321 4451.00620859 -155.42523032 4451.01068605 -164.44182878 4451.07700401 C-170.43162823 4451.11692228 -176.41971449 4451.10148989 -182.40935476 4451.04294166 C-185.79009099 4451.01138086 -189.16274518 4451.00985855 -192.54376427 4451.06038279 C-214.12315583 4451.36071467 -227.40773678 4445.28164441 -245.3585484 4434.1276505 C-248.4467116 4432.29704098 -251.54457007 4430.48384189 -254.64389347 4428.67222029 C-266.29785967 4421.77309776 -277.41061962 4414.08839145 -288.3585484 4406.1276505 C-289.24872663 4405.48037999 -289.24872663 4405.48037999 -290.15688825 4404.82003331 C-293.59587084 4402.30481722 -296.985558 4399.73046703 -300.3585484 4397.1276505 C-301.15688092 4396.51639318 -301.15688092 4396.51639318 -301.97134137 4395.89278722 C-311.41195474 4388.65398693 -320.46650035 4381.02866505 -329.3585484 4373.1276505 C-330.33436872 4372.26526769 -331.31018903 4371.40288487 -332.31557965 4370.51436925 C-340.2012522 4363.38876153 -347.70962668 4355.88067772 -355.2335484 4348.3776505 C-355.77992963 4347.83394811 -356.32631085 4347.29024571 -356.88924909 4346.73006749 C-362.93090595 4340.71087539 -368.85334853 4334.64896675 -374.3585484 4328.1276505 C-375.23535878 4327.11784613 -376.1129178 4326.10869111 -376.9913609 4325.10030675 C-438.50980688 4253.26450384 -479.92103159 4163.85157195 -495.6710484 4050.7526505 C-495.79328778 4049.63027486 -495.79328778 4049.63027486 -495.91799664 4048.48522496 C-498.03256397 4028.72242638 -498.5056313 4009.0475047 -498.48504823 3989.18191051 C-498.4861672 3986.68658496 -498.48772376 3984.19125957 -498.48967414 3981.69593453 C-498.49291109 3976.27439257 -498.49307762 3970.85286419 -498.49048764 3965.43132213 C-498.48662022 3957.29159281 -498.48860158 3949.15187174 -498.49165267 3941.01214244 C-498.4967089 3927.0728573 -498.49703299 3913.13357562 -498.49478915 3899.19428989 C-498.49252328 3884.99645197 -498.49245986 3870.79861651 -498.49502186 3856.60077861 C-498.49518305 3855.69971817 -498.49534424 3854.79865773 -498.49551032 3853.87029242 C-498.49634287 3849.26937773 -498.49720972 3844.66846304 -498.49808785 3840.06754835 C-498.50442135 3806.47819827 -498.50580068 3772.88884937 -498.50467038 3739.2994988 C-498.50353832 3705.2534677 -498.50457052 3671.20743769 -498.50824285 3637.16140676 C-498.50847484 3634.9903951 -498.50870681 3632.81938344 -498.50893876 3630.64837178 C-498.5098783 3621.8947731 -498.5108346 3613.14117442 -498.51180995 3604.38757575 C-498.51455531 3579.71211595 -498.51693472 3555.03665613 -498.51906192 3530.36119628 C-498.51915947 3529.23045024 -498.51925702 3528.0997042 -498.51935753 3526.93469313 C-498.52486299 3462.62432225 -498.52516714 3398.31395132 -498.52557839 3334.00358025 C-498.52564164 3324.17274596 -498.52570816 3314.34191168 -498.52577894 3304.5110774 C-498.52579663 3302.04704762 -498.52581401 3299.58301785 -498.52583106 3297.11898808 C-498.52621884 3241.82010484 -498.52839739 3186.52122172 -498.53096132 3131.22233854 C-498.53153288 3118.88080757 -498.53208685 3106.53927661 -498.53264195 3094.19774564 C-498.53269707 3092.97268304 -498.53275219 3091.74762044 -498.53280899 3090.48543473 C-498.53314349 3083.04906897 -498.53347726 3075.61270321 -498.53381055 3068.17633745 C-498.53397763 3064.45110948 -498.53414514 3060.72588152 -498.53431269 3057.00065355 C-498.53691458 2999.07954721 -498.53914488 2941.15844086 -498.54099488 2883.23733449 C-498.54103525 2881.97530577 -498.54107562 2880.71327704 -498.54111722 2879.41300502 C-498.5436804 2798.99022226 -498.54457971 2718.56743956 -498.54431688 2638.14465675 C-498.54430413 2634.18995163 -498.54429217 2630.23524651 -498.54428047 2626.28054138 C-498.54419813 2598.49714481 -498.54409542 2570.71374824 -498.54398759 2542.93035166 C-498.54395682 2534.96425763 -498.54392676 2526.99816361 -498.54389678 2519.03206958 C-498.54387168 2512.38730736 -498.54384589 2505.74254514 -498.54381867 2499.09778292 C-498.54330725 2373.59703696 -498.54472485 2248.09629165 -498.55416608 2122.59554601 C-498.55426544 2121.27431119 -498.5543648 2119.95307638 -498.55446717 2118.59180414 C-498.55757852 2077.31013312 -498.56094501 2036.02846212 -498.56435895 1994.74679112 C-498.56786039 1952.38837108 -498.57133086 1910.02995103 -498.57462335 1867.67153096 C-498.57472487 1866.36727777 -498.5748264 1865.06302458 -498.574931 1863.71924857 C-498.58128052 1782.03266044 -498.58520209 1700.34607251 -498.58648133 1618.65948415 C-498.58650136 1617.39779258 -498.58652139 1616.136101 -498.58654202 1614.83617635 C-498.58741736 1559.42491083 -498.58773711 1504.01364531 -498.58745114 1448.60237978 C-498.58733686 1426.31015508 -498.58728079 1404.01793037 -498.58724782 1381.72570566 C-498.58724142 1378.02957416 -498.58723234 1374.33344267 -498.58722267 1370.63731117 C-498.58708619 1314.10854077 -498.58843111 1257.57977096 -498.59426785 1201.05100083 C-498.59439352 1199.83216101 -498.59451919 1198.61332118 -498.59464867 1197.35754682 C-498.59667766 1177.7513813 -498.59882169 1158.1452158 -498.60097548 1138.5390503 C-498.60708549 1082.87336087 -498.61212769 1027.20767223 -498.61000431 971.54198241 C-498.60996159 970.41216416 -498.60991888 969.28234591 -498.60987487 968.11829074 C-498.60892145 943.46758122 -498.60740555 918.81687176 -498.60533816 894.16616231 C-498.60452185 884.33434387 -498.60377822 874.50252543 -498.60305715 864.67070699 C-498.60297649 863.59823275 -498.60289584 862.52575851 -498.60281275 861.42078505 C-498.60029048 827.42443912 -498.60390303 793.42809757 -498.61107496 759.43175241 C-498.61811318 725.94580415 -498.61905988 692.459862 -498.61118803 658.97391373 C-498.61010946 654.38219466 -498.60910058 649.79047558 -498.60813347 645.19875649 C-498.60794146 644.29987701 -498.60774944 643.40099753 -498.6075516 642.47487928 C-498.60471202 628.33290085 -498.60852077 614.1909326 -498.61521408 600.0489558 C-498.62163434 586.19386678 -498.62089464 572.3387933 -498.6126202 558.48370509 C-498.60841168 551.11546658 -498.60724367 543.74726193 -498.61537089 536.37902576 C-498.68653162 468.37918288 -498.68653162 468.37918288 -494.1710484 436.8151505 C-494.06594953 436.06069646 -493.96085065 435.30624242 -493.85256696 434.52892613 C-484.57899503 368.36792535 -462.64881683 304.05421461 -427.9913609 246.82589269 C-426.46398833 244.30189124 -424.95560362 241.76759785 -423.4522984 239.229213 C-411.19644693 218.67213449 -396.75626698 199.43208126 -381.3585484 181.1276505 C-380.91188825 180.59607335 -380.46522809 180.0644962 -380.00503278 179.51681066 C-369.37962302 166.90362973 -358.25010402 154.93665297 -346.6085484 143.2526505 C-345.72110944 142.36053868 -344.83367047 141.46842687 -343.91933942 140.54928136 C-338.89174126 135.53392152 -333.75378688 130.74258 -328.3585484 126.1276505 C-327.20178946 125.10626039 -326.04680133 124.08286082 -324.89370465 123.057338 C-315.71305261 114.95514 -306.19447364 107.41690982 -296.3585484 100.1276505 C-295.62201032 99.58076573 -294.88547223 99.03388097 -294.12661481 98.47042394 C-278.77698127 87.11736165 -262.87550209 76.7021529 -246.3585484 67.1276505 C-245.70402692 66.74818273 -245.04950543 66.36871495 -244.37514997 65.97774816 C-180.83530774 29.40203716 -110.2635621 7.967557 -37.3585484 1.1276505 C-36.50431335 1.03831296 -35.6500783 0.94897543 -34.76995733 0.85693069 C-23.20276198 -0.21662777 -11.60549495 -0.01126411 0 0 Z " fill="#0D3F7A" transform="translate(498.35854840278625,51.87234950065613)"/>
<path d="M0 0 C1.11930407 0.94800824 2.23699306 1.8979236 3.35400391 2.84863281 C4.28788437 3.64179901 4.28788437 3.64179901 5.2406311 4.45098877 C7.46457588 6.4090292 9.42356232 8.52192173 11.375 10.75 C12.13296875 11.60851563 12.8909375 12.46703125 13.671875 13.3515625 C14.82429688 14.66253906 14.82429688 14.66253906 16 16 C17.53965146 17.71014978 19.08128752 19.41851511 20.625 21.125 C23.2525288 24.04296376 25.86079793 26.97459434 28.4375 29.9375 C32.09057956 34.13303221 35.84505549 38.23373553 39.59375 42.34375 C42.15148771 45.16722669 44.65769969 48.03056002 47.15625 50.90625 C50.25760235 54.4281247 53.43513333 57.88077022 56.59765625 61.34765625 C58.56941844 63.52460996 60.51365337 65.71838674 62.4375 67.9375 C65.3988351 71.3468858 68.44152486 74.6779431 71.5 78 C75.14414329 81.95862186 78.73913717 85.9517676 82.265625 90.015625 C85.79499465 94.05373262 89.40570631 98.01974189 93 102 C101.56860207 111.48872041 101.56860207 111.48872041 105.4375 115.9375 C109.09057956 120.13303221 112.84505549 124.23373553 116.59375 128.34375 C119.15148771 131.16722669 121.65769969 134.03056002 124.15625 136.90625 C126.40876457 139.46419027 128.70317092 141.9817898 131 144.5 C134.43264761 148.26350521 137.8155501 152.06129351 141.15625 155.90625 C143.40876457 158.46419027 145.70317092 160.9817898 148 163.5 C151.43264761 167.26350521 154.8155501 171.06129351 158.15625 174.90625 C160.40876457 177.46419027 162.70317092 179.9817898 165 182.5 C168.43264761 186.26350521 171.8155501 190.06129351 175.15625 193.90625 C178.25760235 197.4281247 181.43513333 200.88077022 184.59765625 204.34765625 C186.56941844 206.52460996 188.51365337 208.71838674 190.4375 210.9375 C193.3988351 214.3468858 196.44152486 217.6779431 199.5 221 C203.14414329 224.95862186 206.73913717 228.9517676 210.265625 233.015625 C213.79499465 237.05373262 217.40570631 241.01974189 221 245 C229.56860207 254.48872041 229.56860207 254.48872041 233.4375 258.9375 C237.09057956 263.13303221 240.84505549 267.23373553 244.59375 271.34375 C247.15148771 274.16722669 249.65769969 277.03056002 252.15625 279.90625 C254.40876457 282.46419027 256.70317092 284.9817898 259 287.5 C262.43264761 291.26350521 265.8155501 295.06129351 269.15625 298.90625 C271.40876457 301.46419027 273.70317092 303.9817898 276 306.5 C279.43264761 310.26350521 282.8155501 314.06129351 286.15625 317.90625 C288.40876457 320.46419027 290.70317092 322.9817898 293 325.5 C296.43264761 329.26350521 299.8155501 333.06129351 303.15625 336.90625 C306.25760235 340.4281247 309.43513333 343.88077022 312.59765625 347.34765625 C314.56941844 349.52460996 316.51365337 351.71838674 318.4375 353.9375 C321.3988351 357.3468858 324.44152486 360.6779431 327.5 364 C331.14414329 367.95862186 334.73913717 371.9517676 338.265625 376.015625 C341.79499465 380.05373262 345.40570631 384.01974189 349 388 C354.3814456 393.95931895 359.72790695 399.94372835 365 406 C366.31213495 407.50031934 367.62462751 409.00032601 368.9375 410.5 C369.95833333 411.66666667 370.97916667 412.83333333 372 414 C370.6244056 417.08599637 369.05163727 419.19821373 366.66749977 421.58184256 C365.97296449 422.28108363 365.27842921 422.98032471 364.56284741 423.7007549 C363.41140677 424.84466891 363.41140677 424.84466891 362.23670471 426.01169229 C361.42027971 426.83067345 360.60385472 427.64965462 359.76268957 428.4934534 C357.48198019 430.77925585 355.19681177 433.06049162 352.90974497 435.33992993 C350.41856048 437.82500467 347.9331833 440.31587594 345.44706827 442.80602038 C341.0677284 447.19084179 336.68465631 451.57190503 332.29917882 455.95058754 C325.73401083 462.50562298 319.17460969 469.06640665 312.61634831 475.6283512 C301.44078385 486.80985587 290.2604724 497.98660312 279.0776062 509.16080475 C267.73982742 520.48983753 256.40422415 531.82104045 245.07129288 543.15492249 C244.35638483 543.86988792 243.64147678 544.58485335 242.90490485 545.3214844 C239.25981186 548.96689014 235.61475444 552.61233144 231.9697096 556.25778532 C205.56352602 582.66678643 179.15249962 609.07093991 152.7389183 635.47254181 C126.57462183 661.62500024 100.41239003 687.77952128 74.2529335 713.93682098 C73.03508222 715.15456903 73.03508222 715.15456903 71.79262789 716.39691804 C64.37735129 723.81156826 56.96210018 731.22624398 49.54687968 738.6409503 C31.11206506 757.074486 12.67693056 775.50770177 -5.75842094 793.94070053 C-6.59799945 794.7801724 -7.43757795 795.61964426 -8.30259822 796.48455467 C-49.1602758 837.33698705 -90.02163811 878.18573336 -130.88330078 919.03417969 C-145.06623612 933.21253177 -159.24915518 947.39090014 -173.43200684 961.56933594 C-174.31160828 962.44866348 -175.19120973 963.32799103 -176.09746576 964.23396487 C-216.97485928 1005.09867422 -257.84963777 1045.96599883 -298.72374034 1086.83399985 C-301.37676156 1089.48662494 -304.02978391 1092.1392489 -306.68280649 1094.79187264 C-324.2642721 1112.37069873 -341.8456926 1129.94956992 -359.4270829 1147.52847133 C-394.41078566 1182.50722087 -429.39475347 1217.48570531 -464.37890333 1252.46400767 C-466.04500398 1254.12982984 -467.71110444 1255.79565219 -469.37720472 1257.46147473 C-544.39756957 1332.46933069 -619.42101784 1407.47410222 -694.44580078 1482.47753906 C-695.14842131 1483.17995972 -695.85104184 1483.88238038 -696.5749539 1484.60608651 C-731.71644783 1519.73757917 -766.85811517 1554.86889836 -802 1590 C-805.21630141 1588.47396585 -807.28769299 1586.90199229 -809.75 1584.3125 C-812.95384814 1580.95384407 -816.35644947 1577.92313644 -819.85888672 1574.88500977 C-823.38407209 1571.78147998 -826.78089157 1568.54495859 -830.1875 1565.3125 C-835.28702486 1560.49261397 -840.39656273 1555.68618535 -845.5625 1550.9375 C-850.40231417 1546.48712239 -855.20775951 1542.00156081 -860 1537.5 C-864.81380277 1532.97846179 -869.64015628 1528.47202576 -874.5 1524 C-879.35984412 1519.52797386 -884.18616241 1515.02150158 -889 1510.5 C-893.83540289 1505.95852164 -898.68252293 1501.43106379 -903.5625 1496.9375 C-911.38452573 1489.73484902 -919.14822002 1482.47001248 -926.91601562 1475.20898438 C-933.40693592 1469.1423939 -939.90170975 1463.08076402 -946.4375 1457.0625 C-952.00919704 1451.93198899 -957.53534765 1446.75402518 -963.05615234 1441.56884766 C-967.20754992 1437.67261401 -971.37426474 1433.79409647 -975.5625 1429.9375 C-983.38452573 1422.73484902 -991.14822002 1415.47001248 -998.91601562 1408.20898438 C-1005.40693592 1402.1423939 -1011.90170975 1396.08076402 -1018.4375 1390.0625 C-1024.00919704 1384.93198899 -1029.53534765 1379.75402518 -1035.05615234 1374.56884766 C-1039.20754992 1370.67261401 -1043.37426474 1366.79409647 -1047.5625 1362.9375 C-1055.38452573 1355.73484902 -1063.14822002 1348.47001248 -1070.91601562 1341.20898438 C-1077.40693592 1335.1423939 -1083.90170975 1329.08076402 -1090.4375 1323.0625 C-1096.00919704 1317.93198899 -1101.53534765 1312.75402518 -1107.05615234 1307.56884766 C-1111.20754992 1303.67261401 -1115.37426474 1299.79409647 -1119.5625 1295.9375 C-1127.38452573 1288.73484902 -1135.14822002 1281.47001248 -1142.91601562 1274.20898438 C-1149.40693592 1268.1423939 -1155.90170975 1262.08076402 -1162.4375 1256.0625 C-1168.00919704 1250.93198899 -1173.53534765 1245.75402518 -1179.05615234 1240.56884766 C-1183.20754992 1236.67261401 -1187.37426474 1232.79409647 -1191.5625 1228.9375 C-1199.38452573 1221.73484902 -1207.14822002 1214.47001248 -1214.91601562 1207.20898438 C-1221.42842092 1201.12231344 -1227.94456154 1195.04033956 -1234.5 1189 C-1242.34128858 1181.77484705 -1250.12673127 1174.49009931 -1257.91601562 1167.20898438 C-1264.40693592 1161.1423939 -1270.90170975 1155.08076402 -1277.4375 1149.0625 C-1283.00919704 1143.93198899 -1288.53534765 1138.75402518 -1294.05615234 1133.56884766 C-1298.20754992 1129.67261401 -1302.37426474 1125.79409647 -1306.5625 1121.9375 C-1314.38452573 1114.73484902 -1322.14822002 1107.47001248 -1329.91601562 1100.20898438 C-1336.4069374 1094.14239252 -1342.90185389 1088.08092214 -1349.4375 1082.0625 C-1354.5008195 1077.39806064 -1359.5376834 1072.7058891 -1364.5625 1068 C-1365.58138306 1067.04685913 -1365.58138306 1067.04685913 -1366.62084961 1066.07446289 C-1367.58390015 1065.17135376 -1367.58390015 1065.17135376 -1368.56640625 1064.25 C-1369.13302979 1063.71890625 -1369.69965332 1063.1878125 -1370.28344727 1062.640625 C-1370.84990967 1062.09921875 -1371.41637207 1061.5578125 -1372 1061 C-1372.68303947 1060.40945894 -1373.36607895 1059.81891788 -1374.06981659 1059.21048164 C-1376.3676146 1056.57900097 -1376.52410087 1055.43348451 -1376.5994873 1051.9916687 C-1376.63032661 1050.98925707 -1376.66116592 1049.98684544 -1376.69293976 1048.95405769 C-1376.70596886 1047.86433096 -1376.71899796 1046.77460423 -1376.73242188 1045.65185547 C-1376.76077873 1044.50070189 -1376.78913559 1043.3495483 -1376.81835175 1042.16351128 C-1376.90204547 1038.44236278 -1376.95451838 1034.72179927 -1377 1031 C-1377.01777496 1029.80767006 -1377.03554993 1028.61534012 -1377.05386353 1027.38687897 C-1377.17288941 1019.14128921 -1377.23018713 1010.89579604 -1377.27049255 1002.64951563 C-1377.28904171 999.06432752 -1377.31275488 995.47917307 -1377.3359375 991.89401245 C-1377.37482626 985.7945883 -1377.41113391 979.69515405 -1377.44555664 973.59570312 C-1377.531786 958.36320099 -1377.63290344 943.13079168 -1377.73415184 927.89838314 C-1377.7500042 925.50717932 -1377.76570879 923.11597456 -1377.78138733 920.72476959 C-1377.94083543 896.48196146 -1378.1711226 872.24113885 -1378.5 848 C-1378.83920011 822.84428725 -1379.07548933 797.68859754 -1379.25 772.53125 C-1379.25522989 771.77973537 -1379.26045979 771.02822075 -1379.26584816 770.25393295 C-1379.37156705 755.04767945 -1379.47369987 739.84140451 -1379.5677014 724.63507384 C-1379.61625392 716.78795398 -1379.66645083 708.94084582 -1379.71875 701.09375 C-1379.72356109 700.37180883 -1379.72837218 699.64986766 -1379.73332906 698.90604949 C-1379.88968346 675.63659531 -1380.13911617 652.36914553 -1380.43269467 629.101053 C-1381.10800557 575.53104478 -1381.52664127 521.95888095 -1381.94635092 468.38639195 C-1382.02872603 457.87956402 -1382.11374894 447.37275996 -1382.20043945 436.8659668 C-1382.71945498 373.91046511 -1383.18502093 310.95816012 -1383 248 C-1381.89091147 248.94749009 -1380.78227602 249.89551054 -1379.67382812 250.84375 C-1379.05640747 251.37162109 -1378.43898682 251.89949219 -1377.80285645 252.44335938 C-1375.32516951 254.582669 -1372.90952655 256.7843434 -1370.5 259 C-1369.99718506 259.46220947 -1369.49437012 259.92441895 -1368.97631836 260.40063477 C-1364.17657053 264.82078277 -1359.40948857 269.27591695 -1354.64306641 273.73193359 C-1348.4545037 279.51603573 -1342.23051568 285.26116496 -1336 291 C-1328.50612832 297.9024934 -1321.03464888 304.827722 -1313.59082031 311.78417969 C-1307.41844654 317.54951387 -1301.21239307 323.27785743 -1295 329 C-1287.50612832 335.9024934 -1280.03464888 342.827722 -1272.59082031 349.78417969 C-1266.41844654 355.54951387 -1260.21239307 361.27785743 -1254 367 C-1246.50612832 373.9024934 -1239.03464888 380.827722 -1231.59082031 387.78417969 C-1225.41844654 393.54951387 -1219.21239307 399.27785743 -1213 405 C-1205.50612832 411.9024934 -1198.03464888 418.827722 -1190.59082031 425.78417969 C-1184.41844654 431.54951387 -1178.21239307 437.27785743 -1172 443 C-1164.50612832 449.9024934 -1157.03464888 456.827722 -1149.59082031 463.78417969 C-1143.41844654 469.54951387 -1137.21239307 475.27785743 -1131 481 C-1123.50612832 487.9024934 -1116.03464888 494.827722 -1108.59082031 501.78417969 C-1102.41844654 507.54951387 -1096.21239307 513.27785743 -1090 519 C-1082.50612832 525.9024934 -1075.03464888 532.827722 -1067.59082031 539.78417969 C-1061.41844654 545.54951387 -1055.21239307 551.27785743 -1049 557 C-1041.50612832 563.9024934 -1034.03464888 570.827722 -1026.59082031 577.78417969 C-1020.41844654 583.54951387 -1014.21239307 589.27785743 -1008 595 C-1000.50612832 601.9024934 -993.03464888 608.827722 -985.59082031 615.78417969 C-979.41844654 621.54951387 -973.21239307 627.27785743 -967 633 C-959.50612832 639.9024934 -952.03464888 646.827722 -944.59082031 653.78417969 C-938.41844654 659.54951387 -932.21239307 665.27785743 -926 671 C-918.50612832 677.9024934 -911.03464888 684.827722 -903.59082031 691.78417969 C-897.41844654 697.54951387 -891.21239307 703.27785743 -885 709 C-877.50612832 715.9024934 -870.03464888 722.827722 -862.59082031 729.78417969 C-856.41844654 735.54951387 -850.21239307 741.27785743 -844 747 C-837.1468632 753.31232206 -830.30749529 759.63844094 -823.5 766 C-813.75750372 775.10167432 -804.01705591 784.19948576 -794 793 C-789.50961146 789.23709736 -785.21602257 785.36090029 -781.08434349 781.20854199 C-780.52888259 780.65435917 -779.97342168 780.10017635 -779.40112863 779.52920011 C-777.54764598 777.67877066 -775.69773438 775.82481315 -773.84779453 773.97084236 C-772.49767688 772.62146476 -771.14733979 771.27230668 -769.79680362 769.92334795 C-766.07794606 766.20755924 -762.36221718 762.48865553 -758.64698063 758.76924683 C-754.6077591 754.72659145 -750.56563615 750.68683888 -746.52387708 746.64672077 C-739.43797781 739.56289599 -732.35394079 732.47721314 -725.27111244 725.39031792 C-717.67200401 717.78685829 -710.07183187 710.18446487 -702.47031021 702.58341789 C-701.99008592 702.1032223 -701.50986164 701.6230267 -701.0150851 701.12827973 C-698.56638916 698.67974017 -696.11767544 696.23121839 -693.66895544 693.7827029 C-675.94749612 676.06265089 -658.22845634 658.34018113 -640.51069832 640.61642838 C-622.96449126 623.06429881 -605.41724962 605.51320458 -587.86861992 587.96349716 C-587.32362178 587.41846461 -586.77862364 586.87343206 -586.2171104 586.31188337 C-581.23938923 581.333849 -576.26165531 576.35582738 -571.28390608 571.37782107 C-558.90979508 559.00307067 -546.53584405 546.62816033 -534.16200161 534.2531414 C-533.59852483 533.68961131 -533.03504805 533.12608121 -532.45449622 532.54547444 C-505.04480097 505.13315769 -477.63694901 477.71899817 -450.22924805 450.3046875 C-440.71819702 440.79134481 -431.20713784 431.27801027 -421.69604492 421.76470947 C-421.10616577 421.17469337 -420.51628662 420.58467727 -419.90853234 419.9767819 C-392.48633984 392.54824527 -365.06283801 365.12101787 -337.63899836 337.69412811 C-335.85861425 335.91354594 -334.0782307 334.1329632 -332.29784727 332.35238034 C-320.49914895 320.55236224 -308.70042806 308.75236671 -296.90169206 296.95238628 C-273.42515097 273.47336869 -249.94874247 249.99421851 -226.47242508 226.51497725 C-225.3544225 225.39683543 -224.23641982 224.2786937 -223.11841706 223.16055206 C-172.78871234 172.8245943 -122.46055025 122.48709427 -72.13305664 72.14892578 C-71.66181109 71.67758029 -71.19056554 71.20623481 -70.70503982 70.72060613 C-47.13659905 47.1471649 -23.56824631 23.57363565 0 0 Z " fill="#FEFEFE" transform="translate(2809,1273)"/>
<path d="M0 0 C2.98512493 1.42390383 4.77640765 2.61814234 6.875 5.1875 C10.37817099 9.32966141 14.03800621 13.29612565 17.75 17.25 C23.87959686 23.79212691 29.95306175 30.38141618 36 37 C37.8325302 39.00073663 39.66627021 41.00036286 41.5 43 C42.41668877 43.99997974 43.33335546 44.99997972 44.25 46 C44.70375 46.495 45.1575 46.99 45.625 47.5 C104.75 112 104.75 112 106.12475586 113.49975586 C107.04220685 114.50059668 107.95968736 115.50141045 108.87719727 116.50219727 C111.15710551 118.98911261 113.43651293 121.47648315 115.71484375 123.96484375 C120.46607559 129.15297047 125.22608074 134.33273561 130 139.5 C135.22812079 145.15888968 140.43844089 150.83382832 145.64111328 156.51611328 C147.92642496 159.01164407 150.2132958 161.50574527 152.5 164 C153.41667404 164.99999325 154.3333407 165.99999324 155.25 167 C155.70375 167.495 156.1575 167.99 156.625 168.5 C193.75000001 209.00000001 193.75000001 209.00000001 195.12475586 210.49975586 C196.04220685 211.50059668 196.95968736 212.50141045 197.87719727 213.50219727 C200.15710551 215.98911261 202.43651293 218.47648315 204.71484375 220.96484375 C209.46607559 226.15297047 214.22608074 231.33273561 219 236.5 C224.22812079 242.15888968 229.43844089 247.83382832 234.64111328 253.51611328 C236.92642496 256.01164407 239.2132958 258.50574527 241.5 261 C242.41667404 261.99999325 243.3333407 262.99999324 244.25 264 C244.70375 264.495 245.1575 264.99 245.625 265.5 C293.74999999 317.99999999 293.74999999 317.99999999 295.12475586 319.49975586 C296.04220685 320.50059668 296.95968736 321.50141045 297.87719727 322.50219727 C300.15710551 324.98911261 302.43651293 327.47648315 304.71484375 329.96484375 C309.46607559 335.15297047 314.22608074 340.33273561 319 345.5 C324.22812079 351.15888968 329.43844089 356.83382832 334.64111328 362.51611328 C336.92642496 365.01164407 339.2132958 367.50574527 341.5 370 C342.41667404 370.99999325 343.3333407 371.99999324 344.25 373 C344.70375 373.495 345.1575 373.99 345.625 374.5 C393.75 427 393.75 427 395.12475586 428.49975586 C396.04220685 429.50059668 396.95968736 430.50141045 397.87719727 431.50219727 C400.15710551 433.98911261 402.43651293 436.47648315 404.71484375 438.96484375 C409.46607559 444.15297047 414.22608074 449.33273561 419 454.5 C424.22812079 460.15888968 429.43844089 465.83382832 434.64111328 471.51611328 C436.92642496 474.01164407 439.2132958 476.50574527 441.5 479 C442.41667404 479.99999325 443.3333407 480.99999324 444.25 482 C444.70375 482.495 445.1575 482.99 445.625 483.5 C482.75 524 482.75 524 484.12475586 525.49975586 C485.04220685 526.50059668 485.95968736 527.50141045 486.87719727 528.50219727 C489.15710551 530.98911261 491.43651293 533.47648315 493.71484375 535.96484375 C498.46607559 541.15297047 503.22608074 546.33273561 508 551.5 C513.22812079 557.15888968 518.43844089 562.83382832 523.64111328 568.51611328 C525.92642496 571.01164407 528.2132958 573.50574527 530.5 576 C531.41667404 576.99999325 532.3333407 577.99999324 533.25 579 C533.70375 579.495 534.1575 579.99 534.625 580.5 C582.75 633 582.75 633 584.12475586 634.49975586 C585.04220685 635.50059668 585.95968736 636.50141045 586.87719727 637.50219727 C589.15710551 639.98911261 591.43651293 642.47648315 593.71484375 644.96484375 C598.46607559 650.15297047 603.22608074 655.33273561 608 660.5 C613.22812079 666.15888968 618.43844089 671.83382832 623.64111328 677.51611328 C625.92642496 680.01164407 628.2132958 682.50574527 630.5 685 C631.41667404 685.99999325 632.3333407 686.99999324 633.25 688 C633.70375 688.495 634.1575 688.99 634.625 689.5 C671.75 730 671.75 730 673.12475586 731.49975586 C674.04220685 732.50059668 674.95968736 733.50141045 675.87719727 734.50219727 C678.15710551 736.98911261 680.43651293 739.47648315 682.71484375 741.96484375 C687.46607559 747.15297047 692.22608074 752.33273561 697 757.5 C702.22812079 763.15888968 707.43844089 768.83382832 712.64111328 774.51611328 C714.92642496 777.01164407 717.2132958 779.50574527 719.5 782 C720.41667404 782.99999325 721.3333407 783.99999324 722.25 785 C722.70375 785.495 723.1575 785.99 723.625 786.5 C771.74999998 838.99999998 771.74999998 838.99999998 773.12475586 840.49975586 C774.04220685 841.50059668 774.95968736 842.50141045 775.87719727 843.50219727 C778.15710551 845.98911261 780.43651293 848.47648315 782.71484375 850.96484375 C787.46607559 856.15297047 792.22608074 861.33273561 797 866.5 C802.22812079 872.15888968 807.43844089 877.83382832 812.64111328 883.51611328 C814.92642496 886.01164407 817.2132958 888.50574527 819.5 891 C820.41667404 891.99999325 821.3333407 892.99999324 822.25 894 C822.70375 894.495 823.1575 894.99 823.625 895.5 C871.74999998 947.99999998 871.74999998 947.99999998 873.12475586 949.49975586 C874.04220685 950.50059668 874.95968736 951.50141045 875.87719727 952.50219727 C878.15710551 954.98911261 880.43651293 957.47648315 882.71484375 959.96484375 C887.46607559 965.15297047 892.22608074 970.33273561 897 975.5 C902.22812079 981.15888968 907.43844089 986.83382832 912.64111328 992.51611328 C914.92642496 995.01164407 917.2132958 997.50574527 919.5 1000 C920.41667404 1000.99999325 921.3333407 1001.99999324 922.25 1003 C922.70375 1003.495 923.1575 1003.99 923.625 1004.5 C960.75 1045 960.75 1045 962.12475586 1046.49975586 C963.04220685 1047.50059668 963.95968736 1048.50141045 964.87719727 1049.50219727 C967.15710551 1051.98911261 969.43651293 1054.47648315 971.71484375 1056.96484375 C976.46607559 1062.15297047 981.22608074 1067.33273561 986 1072.5 C991.22812079 1078.15888968 996.43844089 1083.83382832 1001.64111328 1089.51611328 C1003.92642496 1092.01164407 1006.2132958 1094.50574527 1008.5 1097 C1009.41667404 1097.99999325 1010.3333407 1098.99999324 1011.25 1100 C1011.930625 1100.7425 1011.930625 1100.7425 1012.625 1101.5 C1028.66666667 1119 1044.70833333 1136.5 1060.75 1154 C1061.20455566 1154.4957251 1061.65911133 1154.9914502 1062.12744141 1155.50219727 C1063.03659042 1156.49430491 1063.94512752 1157.48697368 1064.85302734 1158.48022461 C1067.25478753 1161.10609726 1069.66891178 1163.71910013 1072.1015625 1166.31640625 C1072.60751953 1166.85974609 1073.11347656 1167.40308594 1073.63476562 1167.96289062 C1074.60615416 1169.00557373 1075.5812488 1170.04482016 1076.56054688 1171.08007812 C1078.71377325 1173.39869264 1079.9847196 1174.95415879 1081 1178 C1013.102501 1178.32573801 945.20490859 1178.62781617 877.30683899 1178.80451965 C876.30149973 1178.80714274 875.29616047 1178.80976582 874.26035639 1178.81246839 C852.4102199 1178.86933718 830.56007513 1178.92197013 808.709918 1178.97024126 C797.99419155 1178.9939401 787.27846734 1179.0185747 776.56274414 1179.04370117 C775.49641604 1179.04618559 774.43008793 1179.04867002 773.33144686 1179.05122972 C738.78514238 1179.13215707 704.2394294 1179.27484237 669.69348308 1179.44964719 C634.18505243 1179.62899539 598.67694896 1179.74585297 563.16807303 1179.78438481 C558.14964869 1179.78985954 553.13122546 1179.79604663 548.11280251 1179.80266762 C546.63129517 1179.80458917 546.63129517 1179.80458917 545.11985839 1179.80654955 C529.23786617 1179.82897928 513.3568873 1179.91703777 497.4753079 1180.02980865 C481.49837277 1180.14184991 465.52243945 1180.18434699 449.54512545 1180.15652617 C440.05843049 1180.1421028 430.57540953 1180.18032651 421.08938005 1180.29515332 C414.74178878 1180.3667208 408.39658602 1180.36839929 402.04882592 1180.31480446 C398.43682101 1180.28626379 394.8317254 1180.28662322 391.22048029 1180.37278046 C378.14312842 1180.66670041 367.54502233 1180.71904554 357.5612091 1171.43403726 C353.77916166 1167.47721893 350.37098372 1163.30681455 347 1159 C345.74425765 1157.52131841 344.47783233 1156.05161651 343.19894141 1154.59290951 C342.66039502 1153.97814805 342.12184864 1153.36338658 341.56698267 1152.72999598 C338.98409946 1149.87841526 336.25104663 1147.1879949 333.5 1144.5 C329.4646327 1140.51478981 325.60576993 1136.48480851 321.9375 1132.15625 C318.6963345 1128.54914646 315.20737621 1125.18821105 311.76000977 1121.77954102 C308.29613554 1118.33963479 305.02875066 1114.8144615 301.87109375 1111.08984375 C299.3561655 1108.28089466 296.68164678 1105.64891383 294 1103 C290.73617703 1099.77601619 287.53169881 1096.56482179 284.5625 1093.0625 C281.39990018 1089.34042307 277.97029304 1085.93133928 274.5 1082.5 C270.46701526 1078.51223443 266.60597535 1074.48505092 262.9375 1070.15625 C260.23969415 1067.15385317 257.36956181 1064.33739183 254.5 1061.5 C250.4670189 1057.51223169 246.60597538 1053.48505095 242.9375 1049.15625 C239.6963345 1045.54914646 236.20737621 1042.18821105 232.76000977 1038.77954102 C229.29613554 1035.33963479 226.02875066 1031.8144615 222.87109375 1028.08984375 C220.3561655 1025.28089466 217.68164678 1022.64891383 215 1020 C211.73617703 1016.77601619 208.53169881 1013.56482179 205.5625 1010.0625 C202.39990018 1006.34042307 198.97029304 1002.93133928 195.5 999.5 C191.46701526 995.51223443 187.60597535 991.48505092 183.9375 987.15625 C180.6963345 983.54914646 177.20737621 980.18821105 173.76000977 976.77954102 C170.29613554 973.33963479 167.02875066 969.8144615 163.87109375 966.08984375 C161.3561655 963.28089466 158.68164678 960.64891383 156 958 C152.73617703 954.77601619 149.53169881 951.56482179 146.5625 948.0625 C143.39990018 944.34042307 139.97029304 940.93133928 136.5 937.5 C132.46701526 933.51223443 128.60597535 929.48505092 124.9375 925.15625 C121.6963345 921.54914646 118.20737621 918.18821105 114.76000977 914.77954102 C111.29613554 911.33963479 108.02875066 907.8144615 104.87109375 904.08984375 C102.3561655 901.28089466 99.68164678 898.64891383 97 896 C93.73617703 892.77601619 90.53169881 889.56482179 87.5625 886.0625 C84.39990018 882.34042307 80.97029304 878.93133928 77.5 875.5 C73.46701526 871.51223443 69.60597535 867.48505092 65.9375 863.15625 C63.23969415 860.15385317 60.36956181 857.33739183 57.5 854.5 C53.4670189 850.51223169 49.60597538 846.48505095 45.9375 842.15625 C42.6963345 838.54914646 39.20737621 835.18821105 35.76000977 831.77954102 C32.29613554 828.33963479 29.02875066 824.8144615 25.87109375 821.08984375 C23.3561655 818.28089466 20.68164678 815.64891383 18 813 C14.73617703 809.77601619 11.53169881 806.56482179 8.5625 803.0625 C5.39990018 799.34042307 1.97029304 795.93133928 -1.5 792.5 C-5.53298474 788.51223443 -9.39402465 784.48505092 -13.0625 780.15625 C-16.3036655 776.54914646 -19.79262379 773.18821105 -23.23999023 769.77954102 C-26.70386446 766.33963479 -29.97124934 762.8144615 -33.12890625 759.08984375 C-35.6438345 756.28089466 -38.31835322 753.64891383 -41 751 C-44.26382297 747.77601619 -47.46830119 744.56482179 -50.4375 741.0625 C-53.60009982 737.34042307 -57.02970696 733.93133928 -60.5 730.5 C-64.53298474 726.51223443 -68.39402465 722.48505092 -72.0625 718.15625 C-75.3036655 714.54914646 -78.79262379 711.18821105 -82.23999023 707.77954102 C-85.70386446 704.33963479 -88.97124934 700.8144615 -92.12890625 697.08984375 C-94.6438345 694.28089466 -97.31835322 691.64891383 -100 689 C-103.26382297 685.77601619 -106.46830119 682.56482179 -109.4375 679.0625 C-112.60009982 675.34042307 -116.02970696 671.93133928 -119.5 668.5 C-123.53298474 664.51223443 -127.39402465 660.48505092 -131.0625 656.15625 C-133.76030585 653.15385317 -136.63043819 650.33739183 -139.5 647.5 C-143.5329811 643.51223169 -147.39402462 639.48505095 -151.0625 635.15625 C-154.3036655 631.54914646 -157.79262379 628.18821105 -161.23999023 624.77954102 C-164.70386446 621.33963479 -167.97124934 617.8144615 -171.12890625 614.08984375 C-173.6438345 611.28089466 -176.31835322 608.64891383 -179 606 C-182.26382297 602.77601619 -185.46830119 599.56482179 -188.4375 596.0625 C-191.60009982 592.34042307 -195.02970696 588.93133928 -198.5 585.5 C-202.53298474 581.51223443 -206.39402465 577.48505092 -210.0625 573.15625 C-213.3036655 569.54914646 -216.79262379 566.18821105 -220.23999023 562.77954102 C-223.70386446 559.33963479 -226.97124934 555.8144615 -230.12890625 552.08984375 C-232.6438345 549.28089466 -235.31835322 546.64891383 -238 544 C-241.26382297 540.77601619 -244.46830119 537.56482179 -247.4375 534.0625 C-250.60009982 530.34042307 -254.02970696 526.93133928 -257.5 523.5 C-261.53298474 519.51223443 -265.39402465 515.48505092 -269.0625 511.15625 C-272.3036655 507.54914646 -275.79262379 504.18821105 -279.23999023 500.77954102 C-282.70386446 497.33963479 -285.97124934 493.8144615 -289.12890625 490.08984375 C-291.6438345 487.28089466 -294.31835322 484.64891383 -297 482 C-300.26382297 478.77601619 -303.46830119 475.56482179 -306.4375 472.0625 C-309.60009982 468.34042307 -313.02970696 464.93133928 -316.5 461.5 C-320.53298474 457.51223443 -324.39402465 453.48505092 -328.0625 449.15625 C-330.76030585 446.15385317 -333.63043819 443.33739183 -336.5 440.5 C-340.5329811 436.51223169 -344.39402462 432.48505095 -348.0625 428.15625 C-351.3036655 424.54914646 -354.79262379 421.18821105 -358.23999023 417.77954102 C-361.70124746 414.34223367 -364.96718222 410.82069467 -368.12109375 407.09765625 C-371.15006779 403.71603659 -374.40198574 400.55610385 -377.65063477 397.38647461 C-381.00497588 394.08959545 -384.03875964 390.65545056 -387 387 C-385.67516919 384.06470651 -384.23855338 381.98962582 -381.96240234 379.71948242 C-381.34771088 379.10171432 -380.73301941 378.48394623 -380.09970093 377.84745789 C-379.435159 377.19010147 -378.77061707 376.53274506 -378.0859375 375.85546875 C-377.39746735 375.16745682 -376.70899719 374.47944489 -375.99966431 373.77058411 C-374.54104017 372.31497932 -373.07998809 370.86180403 -371.61669922 369.41088867 C-369.39891228 367.21121696 -367.18909123 365.00379113 -364.98046875 362.79492188 C-363.55775978 361.37713428 -362.13459669 359.95980219 -360.7109375 358.54296875 C-360.05854095 357.89168503 -359.40614441 357.24040131 -358.73397827 356.56938171 C-355.68874737 353.55481367 -352.61026101 350.63326469 -349.34988403 347.85186768 C-344.55442255 343.67238192 -340.07478528 339.20744922 -335.58789062 334.70141602 C-334.67198402 333.78565827 -333.75607742 332.86990053 -332.81241608 331.92639256 C-330.28973667 329.4040066 -327.77016717 326.87853467 -325.25111771 324.35252428 C-322.52626865 321.62126775 -319.7984845 318.89294531 -317.07104492 316.16427612 C-312.35072165 311.4410734 -307.63217634 306.71610059 -302.91479492 301.98995972 C-296.08614546 295.14872439 -289.25423066 288.3107573 -282.42143345 281.47366488 C-271.32346766 270.36863986 -260.22737177 259.2617486 -249.1328125 248.15332031 C-248.46953729 247.48921729 -247.80626207 246.82511426 -247.12288761 246.1408869 C-242.41520852 241.42730776 -237.70759646 236.71366167 -233 232 C-227.62244208 226.6155137 -222.24485383 221.23105771 -216.8671875 215.84667969 C-216.2047255 215.18338956 -215.54226351 214.52009944 -214.85972691 213.83670962 C-203.80517561 202.7684619 -192.7486527 191.70218574 -181.69072723 180.63730907 C-174.87690353 173.81901105 -168.06486104 166.99894271 -161.25512505 160.17656207 C-156.58835693 155.50135358 -151.91980962 150.82792678 -147.24987221 146.15588403 C-144.55797939 143.46264948 -141.86691635 140.76859926 -139.17807007 138.07232285 C-136.25880163 135.14501828 -133.3356362 132.22163566 -130.41210938 129.29858398 C-129.14789028 128.02897245 -129.14789028 128.02897245 -127.85813141 126.7337122 C-123.62365616 122.50659172 -119.31036721 118.45176329 -114.7755661 114.54888904 C-112.33331985 112.41843135 -110.03798055 110.16079079 -107.74804688 107.86830139 C-107.27977006 107.400879 -106.81149324 106.93345661 -106.32902622 106.4518699 C-104.78989286 104.91435901 -103.25431665 103.37334781 -101.71875 101.83227539 C-100.60449871 100.7177415 -99.49002613 99.6034288 -98.37535095 98.48931885 C-95.37161194 95.48586497 -92.37095095 92.47935331 -89.37086105 89.47225499 C-86.22699011 86.32210309 -83.08025847 83.17481134 -79.93383789 80.02720642 C-73.98575263 74.07602177 -68.04021957 68.12229419 -62.09561443 62.16763347 C-55.32366326 55.38447779 -48.54884859 48.60418514 -41.7737999 41.8241235 C-27.84602651 27.88591727 -13.92182702 13.94414545 0 0 Z " fill="#FEFEFE" transform="translate(2445,2516)"/>
<path d="M0 0 C4.57346253 3.04897502 7.66216921 5.46356837 11.375 9.3125 C15.16355315 13.19377097 19.04671975 16.86915101 23.171875 20.390625 C25.64171892 22.56493204 27.91792439 24.90736519 30.22265625 27.25390625 C32.06593574 29.06477643 33.97822799 30.75321354 35.9375 32.4375 C39.46634763 35.47679651 42.73005027 38.71016847 45.99609375 42.02734375 C48.58246151 44.57337829 51.3153528 46.92021557 54.06640625 49.28515625 C56.56431556 51.5004738 58.88024989 53.8689817 61.21875 56.25 C63.08389674 58.08242487 65.01927746 59.79353135 67 61.5 C70.22956367 64.28239332 73.23322653 67.21019429 76.21875 70.25 C78.08389674 72.08242487 80.01927746 73.79353135 82 75.5 C85.22956367 78.28239332 88.23322653 81.21019429 91.21875 84.25 C93.08389674 86.08242487 95.01927746 87.79353135 97 89.5 C100.22956367 92.28239332 103.23322653 95.21019429 106.21875 98.25 C108.08389674 100.08242487 110.01927746 101.79353135 112 103.5 C115.22956367 106.28239332 118.23322653 109.21019429 121.21875 112.25 C123.08389674 114.08242487 125.01927746 115.79353135 127 117.5 C130.22956367 120.28239332 133.23322653 123.21019429 136.21875 126.25 C138.08389674 128.08242487 140.01927746 129.79353135 142 131.5 C144.60647609 133.7455794 147.08934521 136.04551512 149.5 138.5 C151.89053167 140.93389732 154.35046262 143.21355559 156.9375 145.4375 C160.46634763 148.47679651 163.73005027 151.71016847 166.99609375 155.02734375 C169.58246151 157.57337829 172.3153528 159.92021557 175.06640625 162.28515625 C177.56431556 164.5004738 179.88024989 166.8689817 182.21875 169.25 C184.08389674 171.08242487 186.01927746 172.79353135 188 174.5 C191.22956367 177.28239332 194.23322653 180.21019429 197.21875 183.25 C199.08389674 185.08242487 201.01927746 186.79353135 203 188.5 C206.22956367 191.28239332 209.23322653 194.21019429 212.21875 197.25 C214.08389674 199.08242487 216.01927746 200.79353135 218 202.5 C221.22956367 205.28239332 224.23322653 208.21019429 227.21875 211.25 C229.08389674 213.08242487 231.01927746 214.79353135 233 216.5 C236.22956367 219.28239332 239.23322653 222.21019429 242.21875 225.25 C244.08389674 227.08242487 246.01927746 228.79353135 248 230.5 C251.22956367 233.28239332 254.23322653 236.21019429 257.21875 239.25 C259.08389674 241.08242487 261.01927746 242.79353135 263 244.5 C266.22956367 247.28239332 269.23322653 250.21019429 272.21875 253.25 C274.08389674 255.08242487 276.01927746 256.79353135 278 258.5 C280.60647609 260.7455794 283.08934521 263.04551512 285.5 265.5 C287.89053167 267.93389732 290.35046262 270.21355559 292.9375 272.4375 C296.46634763 275.47679651 299.73005027 278.71016847 302.99609375 282.02734375 C305.58246151 284.57337829 308.3153528 286.92021557 311.06640625 289.28515625 C313.56431556 291.5004738 315.88024989 293.8689817 318.21875 296.25 C320.08389674 298.08242487 322.01927746 299.79353135 324 301.5 C327.22956367 304.28239332 330.23322653 307.21019429 333.21875 310.25 C335.08389674 312.08242487 337.01927746 313.79353135 339 315.5 C342.22956367 318.28239332 345.23322653 321.21019429 348.21875 324.25 C350.08389674 326.08242487 352.01927746 327.79353135 354 329.5 C357.22956367 332.28239332 360.23322653 335.21019429 363.21875 338.25 C365.08389674 340.08242487 367.01927746 341.79353135 369 343.5 C372.22956367 346.28239332 375.23322653 349.21019429 378.21875 352.25 C380.08389674 354.08242487 382.01927746 355.79353135 384 357.5 C387.22956367 360.28239332 390.23322653 363.21019429 393.21875 366.25 C395.08389674 368.08242487 397.01927746 369.79353135 399 371.5 C402.22956367 374.28239332 405.23322653 377.21019429 408.21875 380.25 C410.08389674 382.08242487 412.01927746 383.79353135 414 385.5 C416.60647609 387.7455794 419.08934521 390.04551512 421.5 392.5 C423.89053167 394.93389732 426.35046262 397.21355559 428.9375 399.4375 C432.46634763 402.47679651 435.73005027 405.71016847 438.99609375 409.02734375 C441.58246151 411.57337829 444.3153528 413.92021557 447.06640625 416.28515625 C449.56431556 418.5004738 451.88024989 420.8689817 454.21875 423.25 C456.08389674 425.08242487 458.01927746 426.79353135 460 428.5 C463.22956367 431.28239332 466.23322653 434.21019429 469.21875 437.25 C471.08389674 439.08242487 473.01927746 440.79353135 475 442.5 C478.22956367 445.28239332 481.23322653 448.21019429 484.21875 451.25 C486.08389674 453.08242487 488.01927746 454.79353135 490 456.5 C493.22956367 459.28239332 496.23322653 462.21019429 499.21875 465.25 C501.08389674 467.08242487 503.01927746 468.79353135 505 470.5 C508.22956367 473.28239332 511.23322653 476.21019429 514.21875 479.25 C516.08389674 481.08242487 518.01927746 482.79353135 520 484.5 C523.22956367 487.28239332 526.23322653 490.21019429 529.21875 493.25 C531.71247514 495.69997558 534.36239803 497.9515385 537.01171875 500.23046875 C539.61428754 502.54670384 542.04063448 505.01129992 544.45703125 507.51953125 C546.13707372 509.21835505 546.13707372 509.21835505 549 511 C549.41320229 513.30898762 549.41320229 513.30898762 549.46792603 516.25886536 C549.49584732 517.37668396 549.52376862 518.49450256 549.55253601 519.64619446 C549.57607903 521.49739143 549.57607903 521.49739143 549.60009766 523.38598633 C549.6422364 525.33158951 549.6422364 525.33158951 549.68522644 527.3164978 C549.76247695 530.90077559 549.82130306 534.48515431 549.87703753 538.06982255 C549.9394174 541.88120352 550.01856617 545.6922379 550.09579468 549.50334167 C550.24101955 556.79693678 550.37097875 564.09072376 550.49566305 571.38469571 C550.63401172 579.43537276 550.78928863 587.48568919 550.9461484 595.53602338 C551.56010756 627.11837565 552.080725 658.70218736 552.584095 690.28646278 C552.92053716 711.29389642 553.35842957 732.2973286 553.87307739 753.30108643 C554.0980688 762.48962292 554.31388712 771.67837656 554.52734375 780.8671875 C554.54848677 781.77651409 554.56962978 782.68584068 554.5914135 783.62272263 C555.04529333 803.24115671 555.38633079 822.86064081 555.65820312 842.48242188 C555.82430647 854.15131602 556.06550492 865.81519614 556.40003777 877.48037338 C556.86906332 893.84998212 557.21237111 910.21995901 557.5 926.59375 C557.52057402 927.76253063 557.54114803 928.93131126 557.5623455 930.13550949 C557.73200914 939.81052452 557.8973151 949.48561324 558.0625 959.16070557 C558.20635226 967.57592216 558.35183015 975.99110826 558.5 984.40625 C558.52060423 985.5780525 558.54120846 986.749855 558.56243706 987.95716667 C558.80919948 1001.87086853 559.09985653 1015.7813818 559.50390625 1029.69140625 C559.92190713 1044.08319915 560.2146325 1058.47542393 560.46484375 1072.87109375 C560.49348133 1074.51754222 560.49348133 1074.51754222 560.52269745 1076.19725227 C560.62157544 1081.90548099 560.71919365 1087.61373055 560.81622314 1093.32199097 C561.33024415 1123.5390924 561.84508937 1153.75595365 562.57421875 1183.96875 C562.59754461 1184.93971178 562.62087048 1185.91067356 562.64490318 1186.91105843 C562.84283075 1195.12991766 563.04272107 1203.34872159 563.25949097 1211.56710815 C563.29249377 1212.8239625 563.29249377 1212.8239625 563.32616329 1214.10620785 C563.36617301 1215.6218064 563.40669854 1217.13739154 563.44801426 1218.65295506 C564.03339556 1240.78712739 564 1262.84165296 564 1285 C377.88 1285 191.76 1285 0 1285 C0 860.95 0 436.9 0 0 Z " fill="#FEFEFE" transform="translate(1426,2410)"/>
<path d="M0 0 C186.12 0 372.24 0 564 0 C564 343.2 564 686.4 564 1040 C556.1252537 1033.25021745 556.1252537 1033.25021745 553.59765625 1030.87890625 C552.74010742 1030.07646484 552.74010742 1030.07646484 551.86523438 1029.2578125 C551.27033203 1028.69835938 550.67542969 1028.13890625 550.0625 1027.5625 C549.41990234 1026.96050781 548.77730469 1026.35851563 548.11523438 1025.73828125 C546.075516 1023.82690915 544.0376983 1021.91352531 542 1020 C540.665496 1018.74855776 539.33086143 1017.49725475 537.99609375 1016.24609375 C535.99212632 1014.3675887 533.98825439 1012.48898297 531.98486328 1010.60986328 C525.61979468 1004.64019811 519.24058031 998.68576879 512.85888672 992.73388672 C509.73853697 989.82336349 506.61932898 986.91161713 503.5 984 C502.25000541 982.83332754 501.00000541 981.66666087 499.75 980.5 C477.25 959.5 454.75 938.5 432.25 917.5 C431.63133057 916.92258057 431.01266113 916.34516113 430.37524414 915.75024414 C429.12440869 914.58278686 427.87359491 913.41530637 426.62280273 912.24780273 C423.51076179 909.34304226 420.39835348 906.43867748 417.28515625 903.53515625 C410.17486817 896.90287073 403.07457688 890.26010298 395.98291016 883.60791016 C389.61832104 877.63907883 383.2399076 871.68514139 376.85888672 865.73388672 C373.73853697 862.82336349 370.61932898 859.91161713 367.5 857 C366.25000541 855.83332754 365.00000541 854.66666087 363.75 853.5 C346.25 837.16666667 328.75 820.83333333 311.25 804.5 C310.63133057 803.92258057 310.01266113 803.34516113 309.37524414 802.75024414 C308.12440869 801.58278686 306.87359491 800.41530637 305.62280273 799.24780273 C302.51076179 796.34304226 299.39835348 793.43867748 296.28515625 790.53515625 C289.17486817 783.90287073 282.07457688 777.26010298 274.98291016 770.60791016 C268.61832104 764.63907883 262.2399076 758.68514139 255.85888672 752.73388672 C252.73853697 749.82336349 249.61932898 746.91161713 246.5 744 C245.25000541 742.83332754 244.00000541 741.66666087 242.75 740.5 C220.25 719.5 197.75 698.5 175.25 677.5 C174.63133057 676.92258057 174.01266113 676.34516113 173.37524414 675.75024414 C172.12440869 674.58278686 170.87359491 673.41530637 169.62280273 672.24780273 C166.51076179 669.34304226 163.39835348 666.43867748 160.28515625 663.53515625 C153.17486817 656.90287073 146.07457688 650.26010298 138.98291016 643.60791016 C132.61832104 637.63907883 126.2399076 631.68514139 119.85888672 625.73388672 C116.73853697 622.82336349 113.61932898 619.91161713 110.5 617 C109.25000541 615.83332754 108.00000541 614.66666087 106.75 613.5 C54.25000001 564.50000001 54.25000001 564.50000001 52.37451172 562.74951172 C51.12618263 561.58442625 49.87781033 560.41938709 48.62939453 559.25439453 C45.47847112 556.31391631 42.32833434 553.37260346 39.1796875 550.4296875 C38.54224609 549.83414063 37.90480469 549.23859375 37.24804688 548.625 C36.06936746 547.52375208 34.89094481 546.42222922 33.71289062 545.3203125 C32.87661133 544.53914063 32.87661133 544.53914063 32.0234375 543.7421875 C31.43175781 543.15775879 30.84007812 542.57333008 30.23046875 541.97119141 C27.92465176 539.83709065 27.92465176 539.83709065 24.70703125 537.85302734 C19.86653212 534.49253484 15.8751242 531.14938034 14.2489624 525.29718018 C13.00552464 517.20576273 13.18956232 509.03929171 13.25 500.875 C13.22238263 498.26888909 13.18855141 495.66283703 13.14868164 493.05688477 C13.07704247 487.83038488 13.03821068 482.60539655 13.02978516 477.37841797 C13.00828838 468.07783109 12.76431189 458.78693085 12.50500488 449.49053955 C12.44065375 447.05677507 12.38707287 444.62309752 12.33886719 442.18896484 C12.16935178 433.68413472 11.89672096 425.19030324 11.53515625 416.69140625 C11.08779237 406.06717593 10.77252592 395.44233679 10.5 384.8125 C10.47942598 384.01175615 10.45885197 383.21101231 10.4376545 382.38600349 C10.26791652 375.75411503 10.10264693 369.12211637 9.9375 362.4901123 C9.79369644 356.72252233 9.64818852 350.95497905 9.5 345.1875 C9.47956194 344.39033695 9.45912388 343.5931739 9.43806648 342.7718544 C9.15789082 331.93866637 8.79693381 321.11237445 8.33641052 310.28512573 C7.98829813 302.03809542 7.77681174 293.79274062 7.61157227 285.5402832 C7.23869382 267.18761404 6.64367676 248.84493433 6 230.5 C5.32908548 211.37878332 4.72482463 192.26018805 4.34179688 173.13085938 C4.16566383 164.57895032 3.89150113 156.03696145 3.53173828 147.49072266 C3.00089201 134.52757292 2.60552191 121.56263302 2.24609375 108.59375 C2.18029365 106.2455639 2.1144614 103.8973787 2.04859924 101.54919434 C1.9122299 96.67198653 1.77713696 91.79474527 1.64282227 86.91748047 C1.47254705 80.74271522 1.29766363 74.56808978 1.12164211 68.39348602 C0.98455645 63.55782535 0.85066976 58.72207966 0.7176075 53.88630676 C0.6545517 51.61266445 0.59040415 49.33905208 0.52502251 47.06547546 C0.49424173 45.99114761 0.46346096 44.91681976 0.43174744 43.80993652 C0.40477752 42.88077171 0.3778076 41.9516069 0.35002041 40.99428558 C0.00076863 27.30569174 0 13.71177995 0 0 Z " fill="#FEFEFE" transform="translate(1422,909)"/>
<path d="M0 0 C-3.81160692 19.05803458 -10.53972627 37.66311748 -16.22597885 56.23780823 C-17.43560145 60.18990398 -18.64415562 64.14232642 -19.8527832 68.09472656 C-21.62086444 73.87636171 -23.389228 79.65791035 -25.15795422 85.43934822 C-28.42517155 96.11906189 -31.68983088 106.7995557 -34.953125 117.48046875 C-35.19534349 118.27325792 -35.43756199 119.0660471 -35.68712044 119.88286018 C-36.8896852 123.81893981 -38.09220811 127.75503222 -39.29470825 131.69113159 C-40.85358223 136.79369323 -42.41263021 141.89620169 -43.97180462 146.99867153 C-45.02906147 150.45860998 -46.08620029 153.91858437 -47.14305115 157.37864685 C-49.1504245 163.95019723 -51.1591615 170.52132355 -53.17179012 177.09126663 C-54.15475706 180.30033842 -55.13702426 183.50962422 -56.11924171 186.71892548 C-56.58329724 188.2345171 -57.04767547 189.75000996 -57.51242638 191.26538849 C-60.16256635 199.90684543 -62.77168785 208.55855131 -65.30711079 217.23443985 C-67.12288711 223.44631388 -69.02028431 229.63133415 -70.9375 235.8125 C-73.32289181 243.53257669 -75.6905057 251.25686945 -78 259 C-80.62709477 267.80541521 -83.32957538 276.58681948 -86.0390625 285.3671875 C-88.05375084 291.90339014 -90.04450174 298.44585748 -92 305 C-94.59219247 313.68811761 -97.25227082 322.35461538 -99.93359375 331.015625 C-101.84498366 337.2018662 -103.72060213 343.39784515 -105.57421875 349.6015625 C-108.37373795 358.96166648 -111.22413053 368.30603897 -114.08203125 377.6484375 C-114.31174496 378.39946999 -114.54145866 379.15050247 -114.77813339 379.92429352 C-116.9346847 386.97445619 -119.09267396 394.02417852 -121.2512207 401.07373047 C-122.43966968 404.95525451 -123.62728852 408.83703186 -124.81447983 412.71894073 C-125.28293113 414.25009785 -125.75169175 415.78116037 -126.22076797 417.31212616 C-128.72891657 425.49850911 -131.21404914 433.69047147 -133.63427734 441.90332031 C-134.05088523 443.31215382 -134.46752572 444.7209777 -134.88420105 446.12979126 C-135.66127863 448.75823924 -136.42982764 451.38897882 -137.19355774 454.02133179 C-137.53533554 455.1791214 -137.87711334 456.33691101 -138.22924805 457.52978516 C-138.5246196 458.54303864 -138.81999115 459.55629211 -139.12431335 460.60025024 C-140 463 -140 463 -142 465 C-146.55494963 460.55152971 -150.93307296 456.02526453 -155.0859375 451.19921875 C-157.35154569 448.59608118 -159.67303552 446.04841276 -162 443.5 C-164.84524228 440.38092989 -167.6719958 437.25244609 -170.4375 434.0625 C-173.3988351 430.6531142 -176.44152486 427.3220569 -179.5 424 C-183.14414329 420.04137814 -186.73913717 416.0482324 -190.265625 411.984375 C-193.79499465 407.94626738 -197.40570631 403.98025811 -201 400 C-209.56860207 390.51127959 -209.56860207 390.51127959 -213.4375 386.0625 C-217.09057956 381.86696779 -220.84505549 377.76626447 -224.59375 373.65625 C-227.15148771 370.83277331 -229.65769969 367.96943998 -232.15625 365.09375 C-234.40876457 362.53580973 -236.70317092 360.0182102 -239 357.5 C-242.43264761 353.73649479 -245.8155501 349.93870649 -249.15625 346.09375 C-251.40876457 343.53580973 -253.70317092 341.0182102 -256 338.5 C-259.43264761 334.73649479 -262.8155501 330.93870649 -266.15625 327.09375 C-268.40876457 324.53580973 -270.70317092 322.0182102 -273 319.5 C-276.43264761 315.73649479 -279.8155501 311.93870649 -283.15625 308.09375 C-286.25760235 304.5718753 -289.43513333 301.11922978 -292.59765625 297.65234375 C-294.56941844 295.47539004 -296.51365337 293.28161326 -298.4375 291.0625 C-301.3988351 287.6531142 -304.44152486 284.3220569 -307.5 281 C-311.14414329 277.04137814 -314.73913717 273.0482324 -318.265625 268.984375 C-321.79499465 264.94626738 -325.40570631 260.98025811 -329 257 C-337.56860207 247.51127959 -337.56860207 247.51127959 -341.4375 243.0625 C-345.09057956 238.86696779 -348.84505549 234.76626447 -352.59375 230.65625 C-355.15148771 227.83277331 -357.65769969 224.96943998 -360.15625 222.09375 C-362.40876457 219.53580973 -364.70317092 217.0182102 -367 214.5 C-370.43264761 210.73649479 -373.8155501 206.93870649 -377.15625 203.09375 C-379.40876457 200.53580973 -381.70317092 198.0182102 -384 195.5 C-387.43264761 191.73649479 -390.8155501 187.93870649 -394.15625 184.09375 C-396.40876457 181.53580973 -398.70317092 179.0182102 -401 176.5 C-404.43264761 172.73649479 -407.8155501 168.93870649 -411.15625 165.09375 C-414.25760235 161.5718753 -417.43513333 158.11922978 -420.59765625 154.65234375 C-422.56941844 152.47539004 -424.51365337 150.28161326 -426.4375 148.0625 C-429.3988351 144.6531142 -432.44152486 141.3220569 -435.5 138 C-439.14414329 134.04137814 -442.73913717 130.0482324 -446.265625 125.984375 C-449.79499465 121.94626738 -453.40570631 117.98025811 -457 114 C-465.56860207 104.51127959 -465.56860207 104.51127959 -469.4375 100.0625 C-473.09057956 95.86696779 -476.84505549 91.76626447 -480.59375 87.65625 C-483.15148771 84.83277331 -485.65769969 81.96943998 -488.15625 79.09375 C-490.40876457 76.53580973 -492.70317092 74.0182102 -495 71.5 C-501.33694327 64.53896384 -507.44436063 57.60542705 -513 50 C-498.03024027 48.30491822 -483.0480369 46.73616105 -468.0625 45.1875 C-466.79612701 45.05649902 -465.52975403 44.92549805 -464.2250061 44.79052734 C-441.46537972 42.43843087 -418.69761201 40.17849727 -395.92396545 37.96685791 C-387.7727455 37.17458234 -379.62254211 36.37228111 -371.47265625 35.56640625 C-345.94370495 33.04320258 -320.41232955 30.55022689 -294.87369919 28.12714767 C-257.23453379 24.55573471 -219.60542472 20.91220874 -182 17 C-150.64628339 13.73817581 -119.27877349 10.63482067 -87.89653969 7.65998077 C-85.79317301 7.46058656 -83.6898212 7.26103616 -81.58647156 7.0614624 C-74.81352327 6.41902984 -68.04038538 5.77875359 -61.2668457 5.14257812 C-58.75208514 4.90527348 -56.23735485 4.66764787 -53.72265625 4.4296875 C-52.50254349 4.31449768 -51.28243073 4.19930786 -50.02534485 4.08062744 C-43.77298455 3.48295568 -37.52710101 2.84743873 -31.28466797 2.15332031 C-30.02947861 2.0141922 -28.77428925 1.87506409 -27.48106384 1.73171997 C-25.11743644 1.46693525 -22.75438743 1.19690751 -20.3921051 0.92037964 C-13.5610437 0.15271635 -6.87314269 -0.16310879 0 0 Z " fill="#EF691A" transform="translate(3369,1176)"/>
</svg>
